<?xml version="1.0" encoding="UTF-8"?>
<svg width="600px" height="600px" viewBox="0 0 600 600" version="1.1" xmlns="http://www.w3.org/2000/svg" xmlns:xlink="http://www.w3.org/1999/xlink">
    <!-- Generator: Sketch 41.2 (35397) - http://www.bohemiancoding.com/sketch -->
    <title>artoolkit</title>
    <desc>Created with Sketch.</desc>
    <defs></defs>
    <g id="Page-1" stroke="none" stroke-width="1" fill="none" fill-rule="evenodd">
        <g id="artoolkit" stroke="#000000" stroke-width="5">
            <g id="Group" transform="translate(127.000000, 141.000000)">
                <path d="M93.9068021,179.899145 L245.540998,0.593141018 C245.540998,0.593141018 267.429535,3.60430906 282.626002,15.8985935 C297.822469,28.192878 306.93156,45.6182771 306.93156,45.6182771 L144.789038,231.999559 C144.789038,231.999559 149.999255,268.205647 121.953029,296.613987 C93.9068021,325.022327 67.6078617,318.198419 67.6078617,318.198419 C67.6078617,318.198419 123.188785,276.210818 88.0567337,243.284847 C52.9246821,210.358876 4.13250972,266.242147 4.13250972,266.242147 C4.13250972,266.242147 -9.21647457,237.014657 15.9908516,208.456901 C41.1981777,179.899145 93.9068021,179.899145 93.9068021,179.899145 Z" id="Path-8"></path>
                <polygon id="Path-6" fill="#FFFFFF" points="154.387204 136.741723 67.7312946 60.9435409 73.9057259 53.7992256 161.967221 128.267423"></polygon>
                <path d="M136.321092,147.377872 C136.321092,147.377872 151.63304,139.585451 157.847854,132.426463 C164.062669,125.267475 167.197963,113.248183 167.197963,113.248183 L346.594956,247.020072 C346.594956,247.020072 338.011739,267.283952 321.5624,282.129789 C305.113061,296.975627 288.161757,303.172514 288.161757,303.172514 L136.321092,147.377872 Z" id="Path-5" fill="#FFFFFF"></path>
                <path d="M35.7641098,31.8201943 L41.0508037,26.0935937 C41.0508037,26.0935937 50.2383648,34.0185262 58.7852967,37.4662655 C67.3322286,40.9140048 74.737326,43.962102 74.737326,43.962102 C74.737326,43.962102 78.5077837,49.8281266 71.3370629,58.3233755 C64.1663421,66.8186243 59.0124617,65.4700577 59.0124617,65.4700577 C59.0124617,65.4700577 55.589362,52.9369214 49.7900445,46.8335154 C43.9907271,40.7301093 35.7641098,31.8201943 35.7641098,31.8201943 Z" id="Path-7"></path>
            </g>
        </g>
    </g>
</svg>