<?xml version="1.0" encoding="UTF-8"?>
<svg width="600px" height="600px" viewBox="0 0 600 600" version="1.1" xmlns="http://www.w3.org/2000/svg" xmlns:xlink="http://www.w3.org/1999/xlink">
    <!-- Generator: Sketch 41.2 (35397) - http://www.bohemiancoding.com/sketch -->
    <title>googleglass</title>
    <desc>Created with Sketch.</desc>
    <defs>
        <rect id="path-1" x="0" y="40" width="64" height="58"></rect>
        <mask id="mask-2" maskContentUnits="userSpaceOnUse" maskUnits="objectBoundingBox" x="0" y="0" width="64" height="58" fill="white">
            <use xlink:href="#path-1"></use>
        </mask>
        <rect id="path-3" x="61" y="57" width="52" height="29"></rect>
        <mask id="mask-4" maskContentUnits="userSpaceOnUse" maskUnits="objectBoundingBox" x="0" y="0" width="52" height="29" fill="white">
            <use xlink:href="#path-3"></use>
        </mask>
    </defs>
    <g id="Page-1" stroke="none" stroke-width="1" fill="none" fill-rule="evenodd">
        <g id="googleglass" stroke="#000000">
            <g id="Group" transform="translate(92.000000, 239.000000)">
                <path d="M20.5,48.5 L8.98913557,60.0108644" id="Line" stroke-width="5" stroke-linecap="square"></path>
                <path d="M30.5,48.5 L9.40497689,69.5950231" id="Line" stroke-width="5" stroke-linecap="square"></path>
                <path d="M40.5,48.5 L8.80615202,80.193848" id="Line" stroke-width="5" stroke-linecap="square"></path>
                <path d="M49.5,48.5 L9.61892679,88.3810732" id="Line" stroke-width="5" stroke-linecap="square"></path>
                <path d="M53.5,55.5 L20.3639169,88.6360831" id="Line" stroke-width="5" stroke-linecap="square"></path>
                <path d="M53.5,65.5 L31.409278,87.590722" id="Line" stroke-width="5" stroke-linecap="square"></path>
                <path d="M54.5,75.5 L40.9907439,89.0092561" id="Line" stroke-width="5" stroke-linecap="square"></path>
                <use id="Rectangle" mask="url(#mask-2)" stroke-width="10" xlink:href="#path-1"></use>
                <use id="Rectangle-2" mask="url(#mask-4)" stroke-width="10" xlink:href="#path-3"></use>
                <path d="M6,21.585857 C6,21.585857 49.9657867,2.97635773e-14 95.290459,2.84217094e-14 C140.615131,2.84217094e-14 194.974726,18.3574614 223.246634,18.3574614 C251.518542,18.3574614 293.135457,0.91912358 343.174545,4.00371065 C393.213634,7.08829772 434.853475,19.9914589 434.853475,19.9914589" id="Path-20" stroke-width="5"></path>
                <path d="M14.510672,41.2707242 C14.510672,41.2707242 49.9657867,25 95.290459,25 C140.615131,25 194.974726,43.3574614 223.246634,43.3574614 C251.518542,43.3574614 293.135457,25.9191236 343.174545,29.0037107 C393.213634,32.0882977 426.156285,41.2707242 426.156285,41.2707242" id="Path-20" stroke-width="5"></path>
                <path d="M8.5,20.5 L16.5,40.5" id="Line" stroke-width="5" stroke-linecap="square"></path>
                <path d="M424.5,19.5 L432.5,39.5" id="Line" stroke-width="5" stroke-linecap="square" transform="translate(428.500000, 29.500000) scale(-1, 1) translate(-428.500000, -29.500000) "></path>
                <path d="M175.103099,36 C175.103099,36 177.171829,53.944084 174.011102,66.1677816 C170.850375,78.3914791 166,85.1688564 166,85.1688564" id="Path-21" stroke-width="5"></path>
                <path d="M269.103099,36 C269.103099,36 271.171829,53.944084 268.011102,66.1677816 C264.850375,78.3914791 260,85.1688564 260,85.1688564" id="Path-21" stroke-width="5" transform="translate(264.883988, 60.584428) scale(-1, 1) translate(-264.883988, -60.584428) "></path>
            </g>
        </g>
    </g>
</svg>